<svg id="Layer_1" data-name="Layer 1" xmlns="http://www.w3.org/2000/svg" viewBox="0 0 153.1 134.62"><defs><style>.cls-1{fill:none;stroke:#231f20;stroke-miterlimit:10;}.cls-2{fill:#231f20;}</style></defs><title>home-assistant-icon</title><path d="M151.43,73.72l-17-17V33.26a3.6,3.6,0,0,0-3.6-3.6H119.79a3.6,3.6,0,0,0-3.6,3.6v5.21L79.38,1.67a4,4,0,0,0-5.66,0l-72,72a4,4,0,0,0,0,5.66h17v51.14a3.6,3.6,0,0,0,3.6,3.6H71.43v-19L48.31,91.16a15.51,15.51,0,1,1,7.35-7.07L71.43,100.4V49.76a15.49,15.49,0,1,1,10.2,0v50.72L97.51,84.08a15.51,15.51,0,1,1,7.35,7.07L81.63,115.21v18.91h49.25a3.6,3.6,0,0,0,3.6-3.6V79.38h17A4,4,0,0,0,151.43,73.72Z"/><path class="cls-1" d="M151.43,73.72l-17-17V33.26a3.6,3.6,0,0,0-3.6-3.6H119.79a3.6,3.6,0,0,0-3.6,3.6v5.21L79.38,1.67a4,4,0,0,0-5.66,0l-72,72a4,4,0,0,0,0,5.66h17v51.14a3.6,3.6,0,0,0,3.6,3.6H71.43v-19L48.31,91.16a15.51,15.51,0,1,1,7.35-7.07L71.43,100.4V49.76a15.49,15.49,0,1,1,10.2,0v50.72L97.51,84.08a15.51,15.51,0,1,1,7.35,7.07L81.63,115.21v18.91h49.25a3.6,3.6,0,0,0,3.6-3.6V79.38h17A4,4,0,0,0,151.43,73.72Z"/><circle class="cls-2" cx="41.87" cy="77.1" r="7.53"/><circle class="cls-2" cx="111.59" cy="77.1" r="7.53"/><circle class="cls-2" cx="76.55" cy="35.16" r="7.53"/></svg>